<?xml version="1.0" encoding="utf-8" ?>
<svg xmlns="http://www.w3.org/2000/svg" xmlns:xlink="http://www.w3.org/1999/xlink" width="1024" height="1024">
	<path fill="white" transform="scale(2 2)" d="M0 0L0 512L512 512L512 0L0 0Z"/>
	<path fill="#573F3F" transform="scale(2 2)" d="M258.439 301.829C237.042 301.622 216.88 297.077 198.714 285.542C164.408 263.758 144.89 225.052 148.553 184.66C151.285 154.537 166.246 127.991 189.794 109.284C209.603 93.5471 229.359 87.498 253.904 86.3586C312.23 85.1184 362.41 132.682 363.999 191.093C365.533 247.467 322.897 296.198 266.534 301.521C263.837 301.776 261.144 301.759 258.439 301.829ZM252.571 105.647C202.794 108.876 163.925 149.434 167.178 200.269C170.248 248.252 211.561 285.297 259.574 283.178C282.385 282.645 304.66 272.555 320.392 256.074C375.796 198.031 332.231 103.38 253.627 105.604C253.277 105.614 252.919 105.61 252.571 105.647Z"/>
	<path fill="#573F3F" transform="scale(2 2)" d="M216.802 138.353C224.025 138.135 231.304 138.608 238.516 138.206L238.573 138.194C238.768 138.35 240.63 145.1 240.824 145.754L250.496 177.884C251.224 180.235 254.027 191.475 255.469 192.665C256.353 193.395 257.673 188.06 257.832 187.597C260.592 179.565 263.017 171.391 265.594 163.296L271.218 145.692C272.047 143.171 272.775 140.619 273.629 138.105C278.87 138.692 290.414 138.651 295.879 138.272C294.97 142.039 293.438 145.689 292.2 149.362L279.044 189.544C273.909 205.027 269.435 220.09 264.94 235.794C272.958 235.447 282.49 232.99 286.835 225.538C288.534 222.624 289.57 219.186 290.805 216.048L302.19 187.142C305.131 179.749 309.749 169.883 311.741 162.646C319.299 163.198 327.843 162.693 335.564 162.901C330.441 172.609 325.323 185.485 321.096 195.711L313.472 214.174C310.792 220.668 308.294 227.205 305.326 233.581C298.246 247.881 284.967 255.435 269.703 257.786C249.352 260.919 222.815 257.884 209.756 239.879C205.415 233.894 202.246 224.977 199.372 218.079L180.46 172.689C179.179 169.702 177.561 166.763 176.493 163.701C180.158 162.346 195.294 162.876 199.828 162.69C200.317 164.783 201.291 166.83 202.084 168.828L218.019 209.509C224.182 224.806 226.393 235.271 246.372 235.528L220.049 149.127C218.97 145.575 217.552 141.987 216.802 138.353Z"/>
	<path fill="#573F3F" transform="scale(2 2)" d="M173.284 456L175.599 331L192.728 331L214.796 432.389L237.019 331L253.994 331L256.309 456L242.265 456L240.877 365.259L219.735 456L209.858 456L188.87 365.259L187.481 456L173.284 456ZM268.654 456L295.198 331L312.019 331L338.716 456L322.204 456L316.494 424.519L291.031 424.519L285.012 456L268.654 456ZM293.346 412.019L314.179 412.019L303.685 355.691L293.346 412.019Z"/>
</svg>
